<?xml version="1.0" standalone="no"?>
<!DOCTYPE svg PUBLIC "-//W3C//DTD SVG 1.1//EN" "http://www.w3.org/Graphics/SVG/1.1/DTD/svg11.dtd" >
<svg xmlns="http://www.w3.org/2000/svg">
<metadata></metadata>
<defs>
<font id="bpreplaybold_italic" horiz-adv-x="1280" >
<font-face units-per-em="2048" ascent="1638" descent="-410" />
<missing-glyph horiz-adv-x="579" />
<glyph horiz-adv-x="2048" />
<glyph horiz-adv-x="2048" />
<glyph unicode="&#xd;" horiz-adv-x="2048" />
<glyph unicode=" "  horiz-adv-x="579" />
<glyph unicode="&#x09;" horiz-adv-x="579" />
<glyph unicode="&#xa0;" horiz-adv-x="579" />
<glyph unicode="!" horiz-adv-x="425" d="M-66 164q7 89 65.5 145t135.5 56q73 0 119.5 -47t46.5 -117q-7 -89 -65.5 -145t-137.5 -56q-70 0 -117 47.5t-47 116.5zM8 635q0 20 80 778q18 170 174 170q141 0 141 -135q0 -31 -79 -780q-9 -82 -52 -121t-125 -39q-139 0 -139 127z" />
<glyph unicode="&#x22;" horiz-adv-x="833" d="M43 1118q0 4 4 43q3 29 5.5 51.5t8.5 79.5t13 123q9 86 52.5 128t125.5 42q139 0 139 -135q0 -22 -29 -303q-18 -162 -176 -162q-143 0 -143 133zM440 1118q0 5 4 45q12 109 27 252q18 170 178 170q146 0 146 -137q0 -22 -29 -301q-18 -162 -182 -162q-144 0 -144 133z " />
<glyph unicode="#" horiz-adv-x="1357" d="M10 539q8 87 64 130.5t123 43.5h65q17 45 35 112h-33q-145 0 -145 125q0 84 48.5 130t127.5 46h70q32 143 73 306q19 71 61 110t103 39q59 0 100 -40.5t41 -98.5l-73 -316h69l76 308q38 149 166 149q58 0 95.5 -38.5t37.5 -98.5l-70 -320h25q62 0 105 -32.5t43 -98.5 q-9 -88 -55.5 -129t-133.5 -41h-53q-18 -46 -33 -112h27q67 0 104 -32t37 -95q0 -77 -53.5 -128.5t-126.5 -51.5h-64l-61 -240q-22 -85 -67 -125.5t-117 -40.5q-123 0 -123 115q0 33 6 45l61 246h-73l-60 -238q-42 -168 -184 -168q-123 0 -123 113q0 4 1 13t1 13q0 9 63 267 h-22q-74 0 -116 32.5t-42 100.5zM565 713h74l31 112h-74z" />
<glyph unicode="$" horiz-adv-x="1114" d="M-43 229q9 95 52 137t124 42q63 0 119 -35q60 -43 129 -54l41 388q-62 30 -105 55t-94.5 64.5t-82.5 80t-52.5 97.5t-21.5 122q0 95 38.5 183t102 153t144.5 110t167 60l6 54q8 76 27 102.5t86 26.5q49 0 66.5 -16.5t17.5 -55.5q0 -11 -2.5 -37.5t-3.5 -36.5l-4 -43 q130 -24 231 -106q78 -62 78 -140q0 -74 -55.5 -133t-126.5 -59q-65 0 -123 51l-41 29l-31 -279q94 -48 153 -86t114.5 -90.5t81.5 -115.5t26 -142q0 -215 -137 -368.5t-342 -196.5l-9 -86q-7 -70 -26 -95.5t-84 -25.5q-50 0 -68 16.5t-18 55.5q0 13 4 63l6 59 q-172 15 -309 111q-78 54 -78 141zM412 1169q0 -48 49 -88l22 205q-63 -24 -71 -104v-13zM575 350q82 48 93 142q0 37 -14.5 63t-49.5 51z" />
<glyph unicode="%" horiz-adv-x="1941" d="M84 1112q0 195 129.5 332t312.5 137q164 0 258.5 -108t94.5 -269q0 -128 -59 -238.5t-161 -175.5t-223 -65q-162 0 -257 112t-95 275zM391 1126q0 -48 19 -82t55 -34q56 0 84.5 55t28.5 113q0 49 -22 82.5t-60 33.5q-28 0 -50 -18t-33 -45t-16.5 -54t-5.5 -51zM487 104 q0 50 21 84l629 1272q55 113 166 113q60 0 96.5 -38t36.5 -95q-5 -54 -29 -101l-645 -1282q-9 -28 -52 -57t-98 -29q-53 0 -89 36.5t-36 96.5zM1053 377q0 201 128.5 340t315.5 139q162 0 254 -108.5t92 -268.5q0 -127 -54.5 -236t-155 -176t-224.5 -67q-167 0 -261.5 107 t-94.5 270zM1358 399q0 -49 20.5 -81.5t59.5 -32.5q38 0 63.5 31t34 65.5t8.5 67.5q0 49 -19.5 83.5t-56.5 34.5q-45 0 -74.5 -46.5t-35.5 -121.5z" />
<glyph unicode="&#x26;" horiz-adv-x="1556" d="M6 408q0 162 91 298.5t237 243.5q-64 103 -64 209q0 177 123.5 299.5t290.5 122.5q132 0 222.5 -82t90.5 -235q0 -111 -51 -199.5t-139 -171.5l176 -227l51 75q78 115 180 115q63 0 101.5 -36.5t38.5 -96.5q-5 -75 -58 -152l-125 -159l107 -140q29 -36 29 -84 q-7 -81 -59.5 -134.5t-117.5 -53.5q-69 0 -102 33l-96 114q-90 -89 -200.5 -137.5t-227.5 -48.5q-233 0 -365.5 124t-132.5 323zM326 453q0 -78 63 -129.5t148 -51.5q119 0 225 115l-254 318q-171 -129 -182 -252zM573 1214q0 -70 45 -137q84 84 89 160q0 31 -17 47t-41 16 q-36 0 -56 -25.5t-20 -60.5z" />
<glyph unicode="'" horiz-adv-x="522" d="M37 1112q3 43 14 68l144 280q64 125 180 125q61 0 104 -42.5t43 -106.5q0 -54 -24 -93l-144 -268q-60 -102 -168 -102q-61 0 -105 40t-44 99z" />
<glyph unicode="(" horiz-adv-x="591" d="M-6 569q0 266 92.5 507t280.5 435q66 50 125 50q58 0 95.5 -41.5t37.5 -108.5q-6 -61 -56 -111q-128 -136 -197 -317.5t-69 -380.5q0 -307 150 -485q24 -37 24 -107q-6 -65 -53 -106t-111 -41q-71 0 -114 51q-105 118 -155 290.5t-50 364.5z" />
<glyph unicode=")" horiz-adv-x="591" d="M-78 10q8 58 45 107q133 123 206 311.5t73 394.5q0 280 -142 477q-34 46 -34 111q6 62 57 106t113 44q56 0 100 -41q219 -264 219 -650q0 -171 -37.5 -339.5t-124.5 -334.5t-215 -282q-54 -51 -125 -51q-60 0 -97.5 38.5t-37.5 108.5z" />
<glyph unicode="*" d="M305 963q0 65 72 133l47 24l-45 33q-43 40 -43 98q6 67 53.5 113.5t108.5 46.5q11 0 30.5 -4t20.5 -4l49 -33v10q0 65 45.5 118.5t114.5 53.5q48 0 86.5 -37t38.5 -120v-25l22 14q39 25 86 25q51 0 89 -38.5t38 -92.5q-6 -84 -86 -143l-31 -15l19 -8q70 -41 70 -119 q-6 -66 -53 -111.5t-107 -45.5q-29 0 -99 32l-2 -22q-7 -72 -54 -113t-107 -41q-56 0 -94 35.5t-39 101.5l4 41q-69 -36 -103 -36q-53 0 -92 37t-39 92z" />
<glyph unicode="+" d="M63 592q7 78 60 122t131 44h242l26 239q8 78 57.5 124t125.5 46q65 0 107 -42.5t42 -106.5q0 -2 -2 -23q-11 -88 -27 -237h242q78 0 122 -40t44 -106q0 -88 -57.5 -139t-143.5 -51h-241l-27 -254q-8 -69 -58.5 -118.5t-119.5 -49.5q-73 0 -113.5 39t-40.5 106q0 3 3 28 q2 24 4.5 44.5t8.5 77.5t13 127h-242q-88 0 -122 41.5t-34 128.5z" />
<glyph unicode="," horiz-adv-x="520" d="M-90 -104q2 34 16 65q0 1 1 3t1 3l154 297q62 115 172 115q60 0 100.5 -41t40.5 -98q-2 -25 -18 -74l-170 -318q-58 -98 -154 -98q-59 0 -101 43t-42 103z" />
<glyph unicode="-" horiz-adv-x="800" d="M0 565q0 83 55.5 138t132.5 55h375q156 0 156 -137q0 -87 -52 -136t-137 -49h-374q-156 0 -156 129z" />
<glyph unicode="." horiz-adv-x="501" d="M-4 164q7 89 65.5 145t135.5 56q73 0 119 -47t46 -117q-7 -89 -65 -145t-137 -56q-70 0 -117 47.5t-47 116.5z" />
<glyph unicode="/" d="M207 104q0 51 20 84l625 1272q61 113 170 113q60 0 95.5 -38.5t35.5 -94.5q-5 -59 -27 -101l-645 -1282q-9 -28 -52 -57t-97 -29q-53 0 -89 36.5t-36 96.5z" />
<glyph unicode="0" horiz-adv-x="1191" d="M-20 635q0 86 11.5 175.5t36.5 181.5t61.5 176.5t88.5 159t115 129.5t145 88.5t174 35.5h9q100 0 179.5 -39t130 -102.5t84 -150.5t47 -177t13.5 -188q0 -96 -16.5 -200.5t-48.5 -211.5t-85 -202.5t-120 -170t-160 -118.5t-199 -44q-104 0 -185.5 38.5t-133.5 102 t-86 150.5t-47.5 177t-13.5 190zM315 664q0 -69 8.5 -130t27 -115t52 -86t78.5 -32q55 0 101 46t74.5 114.5t48.5 151.5t28 154t8 126q0 69 -8 130t-25.5 114.5t-49 84.5t-74.5 31q-70 0 -125 -66t-84.5 -164.5t-44.5 -192t-15 -166.5z" />
<glyph unicode="1" horiz-adv-x="827" d="M-14 1272q0 66 44 115t109 67l310 82q62 -5 101.5 -43t39.5 -96q0 -24 -3.5 -67.5t-14 -143.5t-22.5 -212.5t-36.5 -341t-48.5 -462.5q-8 -74 -57.5 -122t-122.5 -48q-69 0 -110.5 40.5t-41.5 106.5q0 1 2 20q27 242 105 996q-67 -24 -113 -24q-60 0 -100.5 37t-40.5 96z " />
<glyph unicode="2" horiz-adv-x="1198" d="M2 131q0 82 59 148l568 673q71 87 80 176q0 58 -38 90.5t-93 32.5q-60 0 -107.5 -39.5t-54.5 -111.5q-7 -64 -56 -122t-124 -58q-72 0 -111 52t-39 118q11 111 61.5 204.5t124.5 154t163 93.5t181 33q83 0 160 -27.5t136.5 -77t95.5 -123t36 -159.5q0 -222 -194 -449 q-268 -311 -361 -420h330q142 0 142 -129q0 -84 -47.5 -134.5t-129.5 -55.5h-606q-176 0 -176 131z" />
<glyph unicode="3" horiz-adv-x="1167" d="M-10 334q0 77 49 134.5t123 57.5q45 0 86 -27.5t55 -74.5q40 -119 141 -119q70 0 126 44.5t65 123.5q0 74 -27.5 131.5t-89.5 67.5h-67q-82 0 -121 26.5t-39 87.5q0 83 52 121.5t140 38.5q40 0 60 4q40 11 70.5 66.5t35.5 109.5q0 136 -114 136q-118 0 -144 -103 q-2 -12 -10 -28t-23 -36t-43 -33t-63 -13q-156 0 -156 122q0 87 45 165.5t115.5 131t155.5 83t166 30.5q181 0 292 -115t111 -272q0 -114 -60.5 -207t-156.5 -153q101 -58 150 -146t49 -192q0 -108 -48.5 -206.5t-126.5 -166t-177 -107t-199 -39.5q-127 0 -226 58t-153 145 q-43 70 -43 154z" />
<glyph unicode="4" horiz-adv-x="1230" d="M-49 498q0 77 59 147l551 760q93 131 230 131q83 0 135.5 -52t52.5 -143q0 -20 -70 -677q138 0 138 -129q0 -86 -46 -137.5t-124 -51.5l-17 -170q-18 -176 -182 -176q-69 0 -107.5 37t-38.5 108q0 11 19 199h-430q-81 0 -125.5 44t-44.5 110zM395 664h191l32 329z" />
<glyph unicode="5" horiz-adv-x="1218" d="M-20 285q7 83 55 127.5t110 44.5q35 0 68 -18.5t53 -51.5q27 -39 81.5 -64.5t109.5 -25.5q89 0 152.5 64.5t72.5 150.5q0 96 -46 156.5t-138 60.5q-35 0 -96 -15.5t-91 -15.5q-149 0 -149 131q0 17 1.5 28t5 26.5t15 52t26 84.5t43.5 146t62 216q20 70 75 110t132 40h430 q67 0 105.5 -42t38.5 -106q0 -83 -49 -132.5t-129 -49.5h-340q-8 -37 -41 -158q121 0 215.5 -37t151 -100.5t85.5 -144t29 -172.5q0 -124 -48.5 -238t-130 -196t-193 -130.5t-232.5 -48.5q-91 0 -174 29t-139 74.5t-88.5 99.5t-32.5 105z" />
<glyph unicode="6" horiz-adv-x="1179" d="M-2 477q0 502 592 1010q66 49 127 49q67 0 109 -38t42 -105v-21q-6 -61 -61 -110q-13 -11 -52 -42t-58 -47t-53 -47t-55.5 -54.5t-46 -56.5t-42.5 -65q61 31 170 31q87 0 155 -32t108.5 -87t61.5 -124t21 -148q0 -160 -78 -302t-210.5 -226.5t-283.5 -84.5 q-89 0 -162.5 26.5t-125.5 72.5t-88 109.5t-53 137t-17 154.5zM322 496q0 -82 41.5 -140t115.5 -61q87 7 145.5 74.5t67.5 156.5q0 92 -42 150.5t-130 58.5q-93 0 -145.5 -74t-52.5 -165z" />
<glyph unicode="7" horiz-adv-x="1134" d="M23 1339q0 95 53 145t141 50h645q65 0 111.5 -43t46.5 -111q0 -38 -29 -106l-604 -1145q-67 -129 -184 -129q-72 0 -106 39.5t-34 99.5q0 51 29 107l510 956h-420q-159 0 -159 137z" />
<glyph unicode="8" horiz-adv-x="1185" d="M-6 422q0 131 69.5 246t180.5 176q-59 38 -93 109.5t-34 154.5q0 128 74 237t187.5 168.5t233.5 59.5q175 0 285.5 -105t110.5 -272q0 -107 -53 -197t-138 -143q74 -37 126 -135.5t52 -202.5q0 -107 -48 -208t-124.5 -173.5t-176 -116t-200.5 -43.5q-205 0 -328.5 124 t-123.5 321zM334 463q0 -69 39.5 -113.5t107.5 -44.5q78 0 129.5 64.5t51.5 140.5q0 71 -40 118.5t-102 47.5q-83 0 -134.5 -66.5t-51.5 -146.5zM444 1112q0 -52 27 -85.5t76 -33.5q48 0 83.5 43t41.5 99q0 59 -27 88.5t-67 29.5q-59 0 -96.5 -42t-37.5 -99z" />
<glyph unicode="9" horiz-adv-x="1167" d="M-18 979q0 123 47.5 235t126.5 191.5t186 126.5t223 47q142 0 245.5 -66t155.5 -179.5t52 -260.5q0 -130 -35 -259t-93.5 -239t-140 -216t-169.5 -191t-187 -162q-53 -39 -117 -39q-61 0 -101 39t-40 96q5 59 26.5 92.5t57.5 61.5q228 171 348 326q-101 -35 -194 -35 q-95 0 -171 37t-123 99t-72 138t-25 158zM307 991q0 -90 48 -141t120 -51q103 0 164 77.5t61 178.5q0 83 -45 141.5t-133 58.5q-67 0 -117.5 -43t-74 -101.5t-23.5 -119.5z" />
<glyph unicode=":" horiz-adv-x="423" d="M-66 164q7 89 65.5 145t135.5 56q73 0 119.5 -47t46.5 -117q-7 -89 -65.5 -145t-137.5 -56q-70 0 -117 47.5t-47 116.5zM0 797q0 79 59.5 141.5t143.5 62.5q72 0 119 -45t47 -114q0 -80 -60 -141.5t-145 -61.5q-69 0 -116.5 45.5t-47.5 112.5z" />
<glyph unicode=";" horiz-adv-x="520" d="M-90 -104q0 -60 42 -103t101 -43q96 0 154 98l170 318q16 49 18 74q0 57 -40.5 98t-100.5 41q-110 0 -172 -115l-154 -297q0 -1 -1 -3t-1 -3q-14 -31 -16 -65zM100 797q0 80 59.5 142t143.5 62q71 0 117.5 -45t46.5 -114q0 -80 -59.5 -141.5t-143.5 -61.5q-70 0 -117 45 t-47 113z" />
<glyph unicode="&#x3c;" horiz-adv-x="1333" d="M53 586q11 123 133 178l875 387q1 0 3 1t3 1q61 21 94 21q59 0 95 -38t36 -96q-6 -66 -36 -106t-91 -68l-653 -260l586 -278q104 -47 104 -140q0 -75 -51 -130.5t-123 -55.5q-50 0 -110 29l-766 403q-99 54 -99 152z" />
<glyph unicode="=" horiz-adv-x="1349" d="M35 297q0 84 47.5 135t128.5 51h858q141 0 141 -129q0 -86 -45.5 -137t-128.5 -51h-858q-143 0 -143 131zM86 776q0 87 48.5 137t127.5 50h858q142 0 142 -132q0 -84 -47 -134t-128 -50h-858q-143 0 -143 129z" />
<glyph unicode="&#x3e;" horiz-adv-x="1333" d="M12 135q6 65 41 106.5t99 71.5q117 54 321 137.5t332 143.5l-612 272q-97 51 -97 135q0 71 48.5 122t117.5 51q27 0 98 -23l789 -387q100 -50 100 -141q0 -60 -38 -110.5t-95 -78.5l-854 -403q-66 -29 -112 -29q-66 0 -102 37t-36 96z" />
<glyph unicode="?" horiz-adv-x="1003" d="M68 1124q0 110 64.5 206t169.5 151t220 55q159 0 265 -95.5t106 -266.5q0 -52 -14 -106t-33.5 -99t-56 -98t-66 -90t-80.5 -90t-81.5 -82.5t-86.5 -82.5q-64 -49 -121 -49q-65 0 -103 37.5t-38 99.5q0 70 80 154q136 123 201.5 202t72.5 148v12q0 43 -24.5 65t-61.5 22 q-34 0 -63 -24.5t-33 -59.5q-17 -74 -65.5 -116t-110.5 -42q-58 0 -99.5 39t-41.5 110zM143 164q7 89 65 145t136 56q70 0 116 -47t46 -117q-7 -89 -64.5 -145t-134.5 -56q-71 0 -117.5 47t-46.5 117z" />
<glyph unicode="@" horiz-adv-x="1705" d="M104 641q0 190 61.5 361t170 298.5t269 202t347.5 74.5q139 0 256 -39t203 -111.5t134 -183t48 -246.5q0 -90 -22 -194.5t-64 -205.5t-115 -168t-163 -67q-112 0 -193 117q-114 -114 -250 -114q-77 0 -136.5 27.5t-95.5 74.5t-54.5 107t-18.5 128q0 120 48.5 230 t143.5 183t214 73q109 0 190 -90q17 88 76 88q33 0 47 -16.5t14 -51.5q0 -88 -23.5 -254.5t-23.5 -247.5q0 -116 70 -116q59 0 105 55t69 135t34 151.5t11 123.5q0 221 -138.5 350t-361.5 129q-161 0 -297 -69t-223 -181t-135.5 -251t-48.5 -284q0 -249 152 -399.5 t387 -150.5q141 0 281 40.5t235 135.5q44 41 79 41q24 0 38 -12t14 -33q-3 -50 -33 -80q-121 -121 -277 -174.5t-321 -53.5q-140 0 -267 47t-224 131t-154.5 211.5t-57.5 278.5zM629 721q0 -92 47 -153.5t141 -61.5q125 0 197 104l37 357q-68 82 -154 82q-63 0 -115.5 -31 t-85 -80t-50 -105.5t-17.5 -111.5z" />
<glyph unicode="A" horiz-adv-x="1392" d="M-43 137q0 38 20 92l560 1217q68 145 213 145q146 0 184 -145q321 -1238 321 -1282q-8 -74 -54.5 -119t-121.5 -45q-119 0 -147 104l-53 185h-523q-8 -18 -32.5 -72t-38.5 -82q-59 -135 -187 -135q-71 0 -106 38.5t-35 98.5zM500 621h291q-18 79 -46.5 186.5t-54.5 218.5 z" />
<glyph unicode="B" horiz-adv-x="1239" d="M-49 158q0 18 131 1249q18 184 190 184h373q58 0 119 -12.5t122 -42.5t108.5 -72.5t77.5 -108.5t30 -145q0 -99 -70 -205t-155 -118q113 -17 188.5 -129.5t75.5 -237.5q0 -143 -81.5 -264.5t-207.5 -188.5t-260 -67h-453q-96 0 -135 31q-53 40 -53 127zM297 328h309 q91 0 148 51.5t63 122.5q0 91 -58.5 148t-176.5 57h-244zM365 963h239q77 0 123.5 41.5t52.5 101.5q0 70 -41 114t-121 44h-223z" />
<glyph unicode="C" horiz-adv-x="1458" d="M18 692q0 184 62 356t171 303.5t269 211t344 79.5q271 0 449 -178q49 -52 49 -123q-9 -88 -59.5 -137t-120.5 -49q-32 0 -67 13.5t-54 35.5q-40 46 -104 71t-136 25q-88 0 -163.5 -34.5t-128 -91t-90 -129.5t-55 -150t-17.5 -152q0 -84 22 -158t64.5 -131.5t111.5 -90.5 t156 -33q160 0 256 88q54 49 117 49q75 0 112 -40t37 -103q0 -99 -78 -164q-223 -183 -487 -183q-132 0 -241.5 38.5t-186 105.5t-129.5 158t-78 195t-25 218z" />
<glyph unicode="D" horiz-adv-x="1351" d="M-45 123q0 31 133 1284q18 184 223 184h375q115 0 211.5 -38t164 -103.5t115 -154t69.5 -189t22 -209.5q0 -170 -59.5 -332t-162 -286.5t-251 -201t-314.5 -77.5h-366q-91 0 -125.5 24t-34.5 99zM303 328h203q102 6 184.5 57t133 128.5t77.5 168t27 182.5 q0 110 -31 198.5t-99.5 145t-166.5 56.5h-230z" />
<glyph unicode="E" horiz-adv-x="1013" d="M-35 111q0 23 133 1302q18 178 191 178h577q150 0 150 -131q0 -92 -50 -144t-135 -52h-421l-29 -277h330q149 0 149 -137q0 -87 -50 -139t-134 -52h-330l-35 -331h437q161 0 161 -135q0 -92 -54 -142.5t-140 -50.5h-592q-92 0 -125 23t-33 88z" />
<glyph unicode="F" horiz-adv-x="909" d="M-59 127q0 3 8 81q45 422 127 1199q18 184 190 184h559q152 0 152 -131q0 -92 -50.5 -144t-135.5 -52h-402l-33 -312h283q147 0 147 -133q0 -92 -49 -144t-133 -52h-282l-50 -473q-15 -150 -180 -150q-151 0 -151 127z" />
<glyph unicode="G" horiz-adv-x="1478" d="M20 670q0 148 37 291.5t109.5 267.5t172 218.5t233 149t284.5 54.5q117 0 231 -39t190.5 -112t76.5 -159q0 -73 -47 -127.5t-117 -54.5q-69 0 -119 53q-99 99 -256 99q-90 0 -166 -38.5t-126.5 -101t-86.5 -142t-52.5 -160t-16.5 -156.5q0 -81 20 -152t59.5 -127 t103.5 -88.5t146 -32.5q139 0 229.5 80.5t121.5 227.5h-297q-162 0 -162 135q0 93 57 143.5t146 50.5h411q57 0 96.5 -14t59.5 -41.5t28.5 -59t8.5 -73.5q0 -162 -54.5 -306.5t-150.5 -250t-235.5 -167t-301.5 -61.5q-127 0 -232.5 37t-179 101.5t-124 153t-74 189.5 t-23.5 212z" />
<glyph unicode="H" horiz-adv-x="1390" d="M-43 131q0 23 135 1299q9 84 52.5 124.5t123.5 40.5q152 0 152 -133q0 -22 -51 -489h594l49 457q9 85 53 125t127 40q151 0 151 -135q0 -20 -135 -1296q-18 -164 -182 -164q-149 0 -149 133q0 21 53 510h-594l-51 -479q-18 -164 -181 -164q-147 0 -147 131z" />
<glyph unicode="I" horiz-adv-x="417" d="M-76 135q0 21 135 1295q18 165 181 165q151 0 151 -135q0 -20 -135 -1294q-9 -85 -54 -125.5t-128 -40.5q-150 0 -150 135z" />
<glyph unicode="J" horiz-adv-x="925" d="M-55 197q0 84 48 136t130 52q46 0 127 -59q40 -29 84 -29q36 0 58.5 21.5t27.5 58.5l110 1053q9 85 52.5 125t128.5 40q153 0 153 -135q0 -29 -112 -1083q-20 -184 -145.5 -293t-309.5 -109q-188 0 -307 119q-45 42 -45 103z" />
<glyph unicode="K" horiz-adv-x="1210" d="M-49 131q0 4 13 129q51 472 126 1184q15 151 176 151q154 0 154 -127q0 -3 -4 -45q-18 -165 -45 -426l555 547q42 47 116 47q61 0 107.5 -46.5t46.5 -106.5q-6 -88 -57 -131q-64 -63 -189 -183t-207 -202l328 -650q31 -37 31 -108q-6 -50 -43 -90.5t-76 -58t-65 -17.5 q-48 0 -75.5 18t-60.5 58l-305 600l-158 -152l-38 -366q-15 -156 -177 -156q-153 0 -153 131z" />
<glyph unicode="L" horiz-adv-x="1040" d="M-49 164q0 25 131 1266q18 165 178 165q152 0 152 -133q0 -22 -119 -1134h514q151 0 151 -135q0 -90 -49 -141.5t-135 -51.5h-653q-170 0 -170 164z" />
<glyph unicode="M" horiz-adv-x="1888" d="M-29 133q0 29 9 74l311 1171q59 221 237 221q79 0 132.5 -50.5t72.5 -143.5l144 -733l303 735q38 93 101 140.5t144 47.5q87 0 136 -56t53 -163l51 -1196q-3 -82 -54.5 -130t-123.5 -48q-78 0 -115.5 38.5t-40.5 119.5l-26 776q-76 -145 -183.5 -433t-136.5 -356 q-30 -72 -78 -109.5t-104 -37.5q-62 0 -103 37t-53 110l-133 793l-213 -778q-21 -79 -64.5 -119.5t-119.5 -40.5q-69 0 -107.5 32.5t-38.5 98.5z" />
<glyph unicode="N" horiz-adv-x="1372" d="M-45 135q0 20 133 1282q18 178 180 178q108 0 170 -108l475 -838l82 778q18 166 179 166q151 0 151 -137q0 -4 -14 -141q-49 -467 -119 -1137q-18 -178 -182 -178q-108 0 -164 96l-481 836l-80 -764q-18 -168 -181 -168q-149 0 -149 135z" />
<glyph unicode="O" horiz-adv-x="1542" d="M25 698q0 138 35 274.5t104 256t163 211t220.5 145t267.5 53.5q125 0 229 -39t176.5 -106.5t122.5 -159t73.5 -195.5t23.5 -218q0 -140 -36 -276.5t-106 -255.5t-165.5 -210t-223 -143.5t-268.5 -52.5q-123 0 -225 38.5t-173.5 105.5t-121 158t-73 195.5t-23.5 218.5z M362 733q0 -86 19.5 -161.5t57 -135.5t99 -94.5t140.5 -34.5q86 0 158.5 38t120.5 98.5t81.5 138t48.5 154.5t15 149q0 116 -33 209t-107.5 153t-181.5 60q-85 0 -157 -38t-119 -98t-80 -137t-47.5 -153t-14.5 -148z" />
<glyph unicode="P" horiz-adv-x="1263" d="M-51 133q0 20 135 1290q17 170 188 170h428q219 0 353.5 -126t134.5 -332q0 -160 -80.5 -295t-214.5 -211.5t-289 -77.5h-285l-40 -385q-18 -166 -181 -166q-149 0 -149 133zM354 879h277q100 6 160.5 66.5t60.5 154.5q0 79 -55.5 122.5t-157.5 43.5h-246z" />
<glyph unicode="Q" horiz-adv-x="1564" d="M25 700q0 138 35.5 274t105 255.5t163.5 211t220.5 144.5t267.5 53q124 0 228 -39t176 -106.5t122 -159t73.5 -195.5t23.5 -218q0 -302 -154 -562l76 -79q37 -43 37 -115q-6 -67 -54.5 -114.5t-123.5 -47.5q-65 0 -105 45l-59 72q-192 -137 -414 -137q-153 0 -273.5 59 t-194.5 160t-112 228t-38 271zM365 735q0 -117 33 -211.5t106 -155.5t176 -61q100 0 174 41l-117 129q-41 44 -41 109q9 84 56.5 133t109.5 49q47 0 86 -33q22 -20 67.5 -75.5t49.5 -59.5q39 124 39 285q0 116 -33 209t-107 153t-180 60q-85 0 -156.5 -37.5t-119 -97.5 t-80.5 -136.5t-48 -153t-15 -147.5z" />
<glyph unicode="R" horiz-adv-x="1269" d="M-51 145q0 23 133 1278q17 170 219 170h408q114 0 208 -36t154 -97t92.5 -137.5t32.5 -159.5q0 -137 -80.5 -245t-204.5 -168l150 -488q16 -58 16 -88q0 -76 -49.5 -126t-124.5 -50q-103 0 -139 90l-197 586h-237l-51 -494q-18 -180 -181 -180q-149 0 -149 145zM365 999 h297q75 0 137 38.5t69 101.5q0 65 -53.5 96t-126.5 31h-297z" />
<glyph unicode="S" horiz-adv-x="1114" d="M-43 229q9 95 52 137t124 42q63 0 119 -35q85 -58 186 -58q90 0 155.5 46.5t74.5 130.5q0 55 -43.5 96t-155.5 96q-51 25 -82 40.5t-78.5 43.5t-77 52t-64.5 59t-54.5 70.5t-33 81.5t-13.5 97q0 216 154 363t380 147q200 0 342 -118q78 -62 78 -140q0 -74 -55.5 -133 t-126.5 -59q-65 0 -123 51q-72 59 -154 59q-67 0 -104.5 -26t-44.5 -90q0 -25 10 -46.5t23 -36t39.5 -31t46 -26t55.5 -26.5t57 -27q94 -48 153 -86t114.5 -90.5t81.5 -115.5t26 -142q0 -127 -52.5 -237.5t-138.5 -184.5t-197.5 -116t-228.5 -42q-207 0 -366 113 q-78 54 -78 141z" />
<glyph unicode="T" horiz-adv-x="1077" d="M80 1399q0 91 51.5 142.5t136.5 51.5h703q151 0 151 -135q0 -90 -52 -141t-134 -51h-188l-115 -1092q-18 -174 -176 -174q-154 0 -154 141q0 21 117 1125h-187q-153 0 -153 133z" />
<glyph unicode="U" horiz-adv-x="1402" d="M2 518q0 57 88 899q17 176 191 176q153 0 153 -141q0 -23 -82 -803q-4 -54 -4 -61q0 -74 21.5 -127.5t60 -83t84.5 -42.5t104 -13q131 0 212 73t100 254l80 768q17 176 190 176q156 0 156 -143q0 -20 -84 -815q-15 -143 -61 -256t-112 -187.5t-153.5 -123.5t-182 -70 t-200.5 -21q-123 0 -222 29.5t-176.5 91.5t-120 168.5t-42.5 251.5z" />
<glyph unicode="V" horiz-adv-x="1353" d="M92 1434q18 163 180 163q125 0 152 -120l209 -904q70 152 200.5 460.5t190.5 441.5q28 61 68.5 90.5t99.5 29.5q61 0 111.5 -48.5t50.5 -110.5q-5 -44 -23 -72l-543 -1184q-82 -180 -217 -180q-127 0 -168 164l-307 1204q-4 32 -4 66z" />
<glyph unicode="W" horiz-adv-x="1882" d="M106 1430q7 75 61 120t122 45t107.5 -39t45.5 -110l62 -793q50 127 137.5 404.5t132.5 396.5q57 141 207 141q75 0 119 -36t55 -105l119 -788l201 778q42 155 186 155q65 0 108 -42t43 -109q0 -39 -8 -55q-66 -234 -190 -661t-162 -560q-22 -76 -86 -124t-141 -48 q-71 0 -123.5 39t-65.5 119l-131 764l-262 -736q-33 -92 -99.5 -141t-135.5 -49q-75 0 -130.5 52t-62.5 134z" />
<glyph unicode="X" horiz-adv-x="1359" d="M-45 121q0 4 1 13t1 13q6 61 47 117l451 600l-285 467q-25 42 -25 82q0 3 1 10.5t1 10.5q7 69 60 114t119 45q88 0 133 -71l223 -365q48 66 138 184t130 172q59 80 148 80q60 0 102.5 -41.5t42.5 -103.5q-5 -70 -41 -115l-350 -446l340 -621q29 -56 29 -102v-19 q-15 -147 -164 -147q-87 0 -142 82l-292 504l-371 -500q-63 -86 -164 -86q-133 0 -133 123z" />
<glyph unicode="Y" horiz-adv-x="1157" d="M82 1415q0 79 49.5 129.5t126.5 50.5q101 0 131 -88l193 -559q46 65 150.5 279.5t150.5 279.5q63 88 157 88q144 0 144 -125q0 -62 -35 -120l-440 -705l-50 -469q-9 -90 -54 -133t-130 -43q-149 0 -149 139q0 25 51 510q-47 104 -139 347t-136 341q-20 42 -20 78z" />
<glyph unicode="Z" horiz-adv-x="1224" d="M-47 141q0 21 2 33q9 74 49 125l741 967h-483q-149 0 -149 131q0 20 2 30q9 85 54 125.5t128 40.5h762q89 0 132.5 -36t43.5 -97q0 -4 -1 -11t-1 -11q-5 -65 -68 -146l-743 -964h551q75 0 114 -34.5t39 -100.5q0 -4 -1 -12.5t-1 -12.5q-18 -168 -184 -168h-842 q-145 0 -145 141z" />
<glyph unicode="[" horiz-adv-x="516" d="M-76 33q0 22 139 1349q21 181 187 181h133q137 0 137 -129q0 -75 -41 -123t-112 -49l-113 -1078q123 -6 123 -121q0 -80 -47 -129t-123 -49h-133q-150 0 -150 148z" />
<glyph unicode="\" horiz-adv-x="954" d="M86 1411q7 70 57.5 110t118.5 40q65 0 91 -29t48 -100q369 -1267 369 -1289v-8q-6 -62 -53.5 -104.5t-112.5 -42.5q-116 0 -149 116l-363 1246q-6 24 -6 61z" />
<glyph unicode="]" horiz-adv-x="516" d="M-78 12q0 78 40 125t110 47l112 1063q-121 3 -121 121q0 84 45.5 132t122.5 48h136q149 0 149 -143q0 -22 -139 -1337q-18 -183 -184 -183h-136q-135 0 -135 127z" />
<glyph unicode="^" d="M76 621q6 72 39 116l481 721q63 90 166 90q102 0 145 -94l316 -719q16 -43 16 -76q0 -77 -50 -125.5t-126 -48.5q-57 0 -91 28.5t-61 92.5l-202 473l-312 -475q-30 -46 -50 -68.5t-51 -36.5t-75 -14q-62 0 -103.5 35.5t-41.5 100.5z" />
<glyph unicode="_" horiz-adv-x="1257" d="M-96 -190q0 83 48 130.5t128 47.5h909q148 0 148 -127q0 -83 -49.5 -128.5t-131.5 -45.5h-909q-143 0 -143 123z" />
<glyph unicode="`" horiz-adv-x="522" d="M31 1077q0 44 24 90l152 283q25 46 67.5 75t96.5 29q69 0 110 -36t41 -101q0 -34 -22 -80l-148 -274q-15 -26 -27 -42.5t-31.5 -36.5t-46 -30t-59.5 -10q-70 0 -113.5 37t-43.5 96z" />
<glyph unicode="a" horiz-adv-x="1310" d="M4 496q0 92 19.5 189t61 191t99.5 167.5t142.5 119t183.5 45.5q79 0 152.5 -40t111.5 -115q10 75 56.5 114t121.5 39q70 0 107 -35.5t37 -101.5q0 -3 -7 -70q-29 -264 -73 -677q0 -31 33 -31q77 0 117 -33.5t40 -97.5q0 -82 -53.5 -129t-134.5 -47q-137 0 -210 47 t-97 139q-70 -89 -160.5 -141t-173.5 -52q-154 0 -263.5 145t-109.5 374zM326 528q0 -107 41 -176t122 -69q61 0 110.5 38.5t77.5 97t43 119t15 113.5q0 118 -51 189t-123 71q-48 0 -88.5 -28t-67 -71t-45 -95.5t-26.5 -100.5t-8 -88z" />
<glyph unicode="b" horiz-adv-x="1173" d="M-39 113q0 20 145 1400q18 162 173 162q145 0 145 -131q0 -21 -51 -504q72 89 151 127.5t172 38.5q70 0 134 -32.5t115 -93.5t81.5 -158t30.5 -217q0 -74 -17.5 -156.5t-50 -163.5t-81 -154t-107 -129t-132.5 -89t-153 -33q-85 0 -160 50t-104 142l-6 -66q-7 -60 -55 -92 t-91 -32q-139 0 -139 131zM330 545q0 -109 45.5 -182.5t136.5 -73.5q59 0 104.5 39.5t69 99.5t34.5 118.5t11 110.5q0 50 -8 93.5t-25 81t-48 59.5t-72 22q-64 0 -114.5 -38t-78 -97t-41.5 -119t-14 -114z" />
<glyph unicode="c" horiz-adv-x="1054" d="M2 524q0 177 84.5 333t232.5 250.5t322 94.5q151 0 250 -47q45 -22 72.5 -58.5t27.5 -78.5q-7 -77 -52 -119.5t-114 -42.5q-28 0 -101 17.5t-114 17.5q-86 0 -153.5 -53t-100 -129t-32.5 -156q0 -111 65.5 -185.5t163.5 -74.5q88 0 158 45q34 22 75 22q51 0 91.5 -39 t40.5 -94q-4 -55 -29.5 -90.5t-71.5 -64.5q-136 -90 -299 -90q-225 0 -370.5 153.5t-145.5 388.5z" />
<glyph unicode="d" horiz-adv-x="1290" d="M4 496q0 75 15.5 156.5t44 161t73 150.5t99 125.5t125.5 86.5t149 32q79 0 153.5 -40t112.5 -115l47 460q9 79 56 121.5t125 42.5q141 0 141 -133q0 -20 -127 -1218q0 -35 33 -35q77 0 117 -33.5t40 -97.5q0 -82 -53.5 -129t-134.5 -47q-137 0 -210 47t-97 139 q-69 -90 -160.5 -141.5t-175.5 -51.5q-154 0 -263.5 145t-109.5 374zM326 528q0 -107 41 -176t122 -69q61 0 110.5 38.5t77.5 97t43 119t15 113.5q0 118 -51 189t-123 71q-48 0 -88.5 -28t-67 -71t-45 -95.5t-26.5 -100.5t-8 -88z" />
<glyph unicode="e" horiz-adv-x="1179" d="M6 516q0 104 27.5 207t80.5 193.5t125 161t168 111t201 40.5q219 0 338 -126.5t119 -336.5q0 -55 -4 -84q-3 -26 -9 -47t-13 -36.5t-20.5 -27.5t-24 -20t-31.5 -13t-34.5 -8t-42 -4.5t-45 -1.5h-50.5h-469q0 -4 -1.5 -13t-1.5 -13q0 -47 18 -86t45 -63.5t61.5 -41.5 t65.5 -24t58 -7q53 0 105 20t85.5 43.5t75.5 43.5t78 20q103 0 103 -135q-6 -58 -45 -94q-178 -197 -463 -197q-121 0 -217 42t-157.5 115.5t-93.5 171t-32 210.5zM360 737h379q2 10 2 29q0 80 -46.5 123t-114.5 43q-77 0 -143.5 -52.5t-76.5 -142.5z" />
<glyph unicode="f" horiz-adv-x="886" d="M-190 -297q0 64 42 109t103 45q50 0 90 38.5t45 88.5l94 909q-76 2 -112.5 27t-36.5 86q0 83 50 124t132 41l14 140q8 82 51 149.5t105.5 110t134 65.5t142.5 23q157 0 157 -133q0 -65 -42 -109.5t-105 -44.5q-50 0 -87 -38t-42 -89l-6 -74q3 0 6.5 1.5t7.5 1.5 q79 0 117.5 -26.5t38.5 -88.5q0 -85 -51 -126.5t-136 -41.5h-24l-103 -973q-13 -81 -56 -148.5t-103.5 -110.5t-130.5 -66t-140 -23q-76 0 -115.5 34t-39.5 99z" />
<glyph unicode="g" horiz-adv-x="1218" d="M-14 -268q8 76 55.5 127t120.5 51q17 0 34 -4.5t26 -8.5t26 -13.5t22 -12.5q77 -45 170 -45q67 0 114.5 25t76.5 74.5t45.5 111.5t25.5 149q-124 -188 -323 -188q-155 0 -265 138t-110 362q0 90 21.5 187.5t65 190.5t103 167.5t142 119.5t174.5 45q79 0 153.5 -40 t112.5 -115l-2 -11q7 79 53.5 121.5t124.5 42.5q70 0 107 -35.5t37 -101.5q0 -2 -3 -29q-27 -246 -92 -882q-16 -156 -73.5 -283t-141 -208.5t-186.5 -125t-215 -43.5q-178 0 -336 107q-63 43 -63 127zM326 528q0 -107 41 -176t122 -69q61 0 110.5 38.5t77.5 97t43 119 t15 113.5q0 118 -51 189t-123 71q-48 0 -88.5 -28t-67 -71t-45 -95.5t-26.5 -100.5t-8 -88z" />
<glyph unicode="h" horiz-adv-x="1101" d="M-41 127q0 20 141 1366q19 164 172 164q144 0 144 -131q0 -21 -49 -482q144 148 301 148q57 0 109.5 -18.5t98 -57t72.5 -106.5t27 -158q0 -24 -70 -694q-15 -158 -176 -158q-143 0 -143 129q0 19 2 29q34 339 56 546q4 35 4.5 42.5t0.5 9.5q0 74 -40 114.5t-95 40.5 q-66 0 -118.5 -48t-61.5 -134l-60 -571q-15 -158 -176 -158q-139 0 -139 127z" />
<glyph unicode="i" horiz-adv-x="645" d="M-6 256q0 31 78 762q15 158 174 158q147 0 147 -132q0 -6 -71 -690v-14q0 -49 32 -49q77 0 117.5 -33.5t40.5 -97.5q0 -82 -53.5 -129t-134.5 -47q-166 0 -248 71t-82 201zM90 1462q9 89 67.5 145t135.5 56q72 0 119 -45.5t47 -114.5q0 -80 -60.5 -142.5t-144.5 -62.5 q-70 0 -117 47.5t-47 116.5z" />
<glyph unicode="j" horiz-adv-x="495" d="M-346 -297q0 -65 40 -99t118 -34q69 0 139 23.5t130.5 66t104 110t56.5 148.5q120 1113 120 1143q0 127 -143 127q-78 0 -121 -39t-61 -119l-109 -1046q-5 -51 -41 -89t-86 -38q-63 0 -105 -44.5t-42 -109.5zM70 1462q9 89 66.5 145t135.5 56q77 0 120.5 -52t43.5 -130 q-7 -76 -66.5 -129.5t-136.5 -53.5q-71 0 -117 47t-46 117z" />
<glyph unicode="k" horiz-adv-x="1087" d="M-43 127q0 20 141 1368q18 160 172 160q144 0 144 -129q0 -41 -72 -713l432 332q53 39 111 39q60 0 102.5 -45t42.5 -105q-4 -49 -21 -76.5t-57 -54.5l-231 -182q14 -31 65.5 -144t77.5 -173.5t52 -141.5t26 -127q-7 -68 -48.5 -104.5t-98.5 -36.5q-43 0 -82.5 22 t-63.5 62l-190 471q-10 -6 -80.5 -63t-79.5 -66l-27 -262q-15 -158 -174 -158q-141 0 -141 127z" />
<glyph unicode="l" horiz-adv-x="561" d="M-55 272q0 82 17.5 228t50 423.5t57.5 573.5q8 78 53 120t123 42q143 0 143 -131q0 -21 -121 -1180q0 -30 7 -43.5t26 -13.5q77 0 117.5 -33.5t40.5 -97.5q0 -82 -54 -129t-135 -47q-173 0 -249 73t-76 215z" />
<glyph unicode="m" horiz-adv-x="1744" d="M-41 127q0 21 92 895q6 69 51.5 116.5t118.5 47.5q71 0 108.5 -39t37.5 -90v-13q144 148 301 148q57 0 112 -16.5t104.5 -57.5t69.5 -100q56 78 150 124t192 46q62 0 116 -19.5t97.5 -58.5t69 -105.5t25.5 -152.5q0 -24 -70 -694q-15 -158 -176 -158q-70 0 -107 32.5 t-37 96.5q0 14 3 29q34 339 56 546q4 35 4.5 42.5t0.5 9.5q0 74 -40 114.5t-95 40.5q-59 0 -108.5 -38.5t-65.5 -108.5l-64 -606q-15 -158 -176 -158q-143 0 -143 129q0 19 2 29q34 339 56 546q4 35 4.5 42.5t0.5 9.5q0 74 -40 114.5t-95 40.5q-66 0 -118.5 -48t-61.5 -134 l-60 -571q-15 -158 -176 -158q-139 0 -139 127z" />
<glyph unicode="n" horiz-adv-x="1069" d="M-41 127q0 21 92 895q6 69 51.5 116.5t118.5 47.5q71 0 108.5 -39t37.5 -90v-13q144 148 301 148q57 0 109.5 -18.5t98 -57t72.5 -106.5t27 -158q0 -24 -70 -694q-15 -158 -176 -158q-143 0 -143 129q0 19 2 29q34 339 56 546q4 35 4.5 42.5t0.5 9.5q0 74 -40 114.5 t-95 40.5q-66 0 -118.5 -48t-61.5 -134l-60 -571q-15 -158 -176 -158q-139 0 -139 127z" />
<glyph unicode="o" horiz-adv-x="1204" d="M8 516q0 135 44 262.5t120.5 227t190.5 159.5t245 60q115 0 206.5 -45.5t148.5 -122.5t86.5 -174.5t29.5 -206.5q0 -135 -41 -259.5t-116 -221.5t-190 -155t-253 -58q-115 0 -206.5 43t-148.5 117.5t-86.5 169.5t-29.5 204zM334 559q0 -73 16 -136t57 -109t101 -46 q51 0 93.5 25.5t70 65t47 89t27.5 96.5t8 89q0 74 -16 139.5t-57.5 113.5t-102.5 48q-62 0 -111.5 -39.5t-77 -100t-41.5 -121.5t-14 -114z" />
<glyph unicode="p" horiz-adv-x="1173" d="M-82 -283q0 4 15 149q52 486 124 1176q15 162 172 162q146 0 146 -133q0 -4 -1 -14t-1 -15q72 88 151 126t172 38q70 0 134 -32.5t115 -93.5t81.5 -158t30.5 -217q0 -74 -17.5 -156.5t-50 -163.5t-81 -154t-107 -129t-132.5 -89t-153 -33q-83 0 -159 45.5t-107 124.5 l-47 -443q-7 -60 -55.5 -92.5t-90.5 -32.5q-139 0 -139 135zM330 545q0 -109 45.5 -182.5t136.5 -73.5q59 0 104.5 39.5t69 99.5t34.5 118.5t11 110.5q0 50 -8 93.5t-25 81t-48 59.5t-72 22q-64 0 -114.5 -38t-78 -97t-41.5 -119t-14 -114z" />
<glyph unicode="q" horiz-adv-x="1185" d="M4 496q0 75 15.5 156.5t44 161t73 150.5t99 125.5t125.5 86.5t149 32q79 0 153.5 -40t112.5 -115l-2 -11q7 79 53.5 121.5t124.5 42.5q70 0 107 -35.5t37 -101.5q0 -2 -4 -38q-38 -357 -136 -1295q-8 -74 -52 -113t-122 -39q-129 0 -129 119q0 16 45 442 q-126 -168 -321 -168q-154 0 -263.5 145t-109.5 374zM326 528q0 -107 41 -176t122 -69q61 0 110.5 38.5t77.5 97t43 119t15 113.5q0 118 -51 189t-123 71q-48 0 -88.5 -28t-67 -71t-45 -95.5t-26.5 -100.5t-8 -88z" />
<glyph unicode="r" horiz-adv-x="835" d="M-51 127q0 20 92 897q18 164 174 164q51 0 85 -31t34 -94v-10q31 52 118 101.5t150 49.5q106 0 157.5 -44t51.5 -109q0 -73 -54.5 -127t-125.5 -54q-25 0 -64.5 6.5t-56.5 6.5q-62 0 -119.5 -44.5t-64.5 -109.5l-60 -571q-15 -158 -174 -158q-143 0 -143 127z" />
<glyph unicode="s" horiz-adv-x="1019" d="M-20 215q7 76 53 114t108 38q41 0 81.5 -17.5t70.5 -39t78 -39t102 -17.5q101 0 109 74q-8 33 -65 70t-131.5 76.5t-148 87.5t-124 120t-50.5 156q13 122 85.5 211t177.5 131.5t229 42.5q181 0 319 -76q70 -41 70 -119q-6 -62 -47.5 -102.5t-108.5 -40.5q-51 0 -145 30.5 t-158 30.5q-94 0 -102 -74q0 -28 29.5 -55.5t76.5 -52.5t103.5 -52.5t113 -62t103.5 -73.5t76.5 -94t29.5 -117q0 -98 -46.5 -174.5t-122 -120.5t-161.5 -66t-175 -22q-202 0 -379 120q-51 34 -51 113z" />
<glyph unicode="t" horiz-adv-x="817" d="M37 1018q0 69 44.5 106t115.5 45l8 80q8 77 52 116.5t122 39.5q145 0 145 -129q0 -3 -0.5 -10t-3.5 -34t-6 -63h88q79 0 115.5 -23t36.5 -85q0 -156 -176 -156h-93q-55 -535 -55 -559q0 -29 7 -42t26 -13q77 0 117.5 -33.5t40.5 -97.5q0 -82 -54 -129t-135 -47 q-178 0 -249.5 78.5t-71.5 236.5q0 59 57 610q-62 7 -96.5 31.5t-34.5 77.5z" />
<glyph unicode="u" horiz-adv-x="1114" d="M-8 393q0 33 63 651q17 158 172 158q144 0 144 -125q0 -10 -54 -559q-4 -46 -4 -59q0 -166 121 -166q78 0 144.5 81.5t80.5 221.5l48 455q8 80 47.5 120.5t122.5 40.5q141 0 141 -129q0 -20 -98 -958q-16 -152 -175 -152q-43 0 -74.5 28.5t-31.5 84.5v16l6 62 q-72 -85 -160 -130.5t-174 -45.5q-135 0 -227 108.5t-92 296.5z" />
<glyph unicode="v" horiz-adv-x="1030" d="M51 1026q7 80 56 125t118 45q128 0 150 -145l88 -553l201 559q67 139 182 139q64 0 101.5 -34t37.5 -99q0 -53 -20 -86l-387 -862q-53 -115 -177 -115q-120 0 -147 115l-199 866q-4 28 -4 45z" />
<glyph unicode="w" horiz-adv-x="1804" d="M78 1026q0 77 50.5 122.5t125.5 45.5q61 0 97 -29t55 -90l94 -600l205 592q21 60 72.5 92.5t109.5 32.5q55 0 106.5 -35.5t59.5 -95.5l84 -576l198 590q42 121 176 121q75 0 106.5 -30t31.5 -95q0 -55 -25 -110q-1 -1 -12.5 -29.5t-35.5 -85t-62 -143.5t-104 -237 t-148 -335q-28 -64 -75.5 -96.5t-103.5 -32.5q-119 0 -149 135q-26 113 -48 252t-50 258l-211 -514q-57 -133 -187 -133q-64 0 -106.5 35.5t-57.5 101.5q-196 840 -196 889z" />
<glyph unicode="x" horiz-adv-x="1120" d="M-41 123q0 82 66 162l315 329l-209 314q-27 42 -27 88q0 71 54.5 123.5t124.5 52.5q92 0 139 -80l119 -252l178 256q54 78 151 78q63 0 104.5 -40t41.5 -101q-6 -75 -53 -125l-275 -303l246 -332q37 -48 37 -115q0 -81 -45 -129.5t-119 -48.5q-109 0 -158 94l-170 281 q-42 -51 -119 -149t-108 -136q-71 -86 -162 -86q-131 0 -131 119z" />
<glyph unicode="y" horiz-adv-x="1058" d="M-88 -297q0 4 1 11.5t1 11.5q8 67 52.5 99t90.5 32q50 0 92 38.5t65 88t34 102.5q-37 161 -101 463.5t-88 411.5q-8 24 -8 49q0 84 47.5 133t124.5 49q61 0 100.5 -33.5t51.5 -93.5l84 -637q36 81 116.5 324t116.5 323q52 119 176 119q72 0 107 -37.5t35 -97.5 q0 -44 -19 -96l-502 -1076q-73 -155 -181.5 -236t-239.5 -81q-76 0 -116 34t-40 99z" />
<glyph unicode="z" horiz-adv-x="1081" d="M-37 131q0 45 16 75t50 66l475 621h-283q-143 0 -143 129q0 170 178 170h557q158 0 158 -125q0 -44 -17 -78t-53 -71l-491 -623h354q145 0 145 -129q0 -83 -47 -124.5t-131 -41.5h-586q-182 0 -182 131z" />
<glyph unicode="{" horiz-adv-x="776" d="M6 731q4 35 17.5 60.5t38.5 42t45.5 25.5t54.5 20q29 0 46.5 49.5t22 108.5t8 119.5t7.5 72.5q9 97 39 162t81 98.5t108 46t136 12.5q57 0 96 -41t39 -92q-6 -79 -51.5 -116t-132.5 -37q-10 0 -14 -48q-3 -28 -8.5 -85t-9 -88t-12.5 -80t-21.5 -82t-35 -72t-52.5 -72 q63 -73 63 -221q0 -52 -13.5 -148.5t-13.5 -142.5q0 -39 25 -39q69 -5 103 -31.5t34 -82.5q0 -4 -1 -12.5t-1 -12.5q-15 -143 -168 -143q-92 0 -155.5 19t-96.5 53.5t-47 74.5t-14 92q0 61 18.5 175t18.5 171q0 78 -19 97q-82 17 -108.5 45.5t-26.5 101.5z" />
<glyph unicode="|" horiz-adv-x="358" d="M-76 94q0 12 148 1407q9 88 51.5 129t124.5 41q141 0 141 -137q0 -20 -147 -1409q-9 -81 -51.5 -119.5t-122.5 -38.5q-144 0 -144 127z" />
<glyph unicode="}" horiz-adv-x="776" d="M-66 45q14 130 162 139q31 0 39 62q3 29 9 102.5t12 110.5t19 93.5t37.5 100.5t61.5 82q-65 84 -65 242q0 61 4 94q2 23 15.5 79.5t13.5 86.5q0 25 -11 25q-80 0 -117.5 33.5t-37.5 107.5q6 54 56.5 99.5t109.5 45.5q72 0 123.5 -10.5t96 -37.5t67 -79.5t22.5 -130.5 q0 -54 -16.5 -155t-16.5 -150q0 -92 33 -106l10 -5q56 -17 86.5 -42.5t30.5 -79.5q0 -139 -172 -168q-30 -33 -42 -102.5t-15 -168t-5 -114.5q-5 -50 -16.5 -89t-37.5 -79.5t-65.5 -67.5t-105 -44t-151.5 -17q-134 0 -134 143z" />
<glyph unicode="~" horiz-adv-x="1253" d="M-2 477q0 74 64.5 153.5t152.5 129t158 49.5q110 0 260 -88q80 -49 110 -49q1 0 5 4t11 12t13 14q21 25 33.5 38t35.5 31.5t50 27t59 8.5q140 0 140 -137q0 -58 -42.5 -119.5t-103 -106.5t-129 -74.5t-119.5 -29.5q-46 0 -91 13.5t-71 27.5t-69 41q-8 4 -32.5 18t-35 19 t-27 10.5t-28.5 5.5t-37 -29q-84 -106 -170 -106q-137 0 -137 137z" />
<glyph unicode="&#xa3;" horiz-adv-x="1388" d="M35 131q0 91 104 191q79 76 122.5 136t51.5 130v47h-135q-143 0 -143 127q0 87 46.5 137t129.5 51h31q-35 83 -35 166q0 80 32 151t86 122.5t122 89.5t141.5 56.5t144.5 18.5q93 0 180 -27t157 -77t112.5 -129.5t42.5 -175.5q-6 -81 -56.5 -134t-117.5 -53 q-106 0 -148 125q-3 73 -61 114.5t-135 41.5q-75 0 -117.5 -40t-42.5 -109q0 -77 28 -140h193q141 0 141 -129q0 -86 -47.5 -136t-126.5 -50h-94q0 -24 -4 -64q-15 -136 -98 -252h479q143 0 143 -131q0 -84 -47.5 -134t-128.5 -50h-799q-151 0 -151 127z" />
<glyph unicode="&#xa4;" horiz-adv-x="1589" d="M45 145q7 103 105 174l161 109q-8 62 -8 94q0 81 45 183l-147 112q-70 67 -70 160q7 68 57 104.5t109 36.5q60 0 119 -53l143 -133q129 69 227 69q111 0 209 -65l162 129q67 53 135 53q55 0 97.5 -32.5t42.5 -92.5q-11 -113 -107 -176l-164 -121q29 -34 29 -102 q0 -105 -41 -180l123 -92q74 -66 74 -146q-7 -78 -57 -117t-111 -39q-66 0 -123 54l-107 102q-133 -88 -260 -88q-128 0 -235 94q-11 -9 -63.5 -50t-72.5 -54q-73 -58 -135 -58q-55 0 -96 32.5t-41 92.5zM590 520q0 -74 39 -114.5t96 -40.5q78 0 128 65t50 148q0 69 -42 109 t-101 40q-76 0 -123 -61t-47 -146z" />
<glyph unicode="&#xa5;" horiz-adv-x="1157" d="M-59 379q0 85 48 135.5t130 50.5h250l8 82h-250q-143 0 -143 129q0 87 48.5 137t127.5 50h116q-161 341 -176 374q-18 45 -18 78q0 79 49.5 129.5t126.5 50.5q101 0 131 -88l189 -544h14q42 64 143 271t148 273q63 88 157 88q144 0 144 -125q0 -70 -35 -120l-270 -387 h139q141 0 141 -132q0 -84 -46.5 -134t-127.5 -50h-276l-9 -82h277q139 0 139 -125q0 -89 -46 -140.5t-128 -51.5h-276l-7 -72q-7 -90 -53 -133t-131 -43q-149 0 -149 139q0 25 8 109h-250q-143 0 -143 131z" />
<glyph unicode="&#xa6;" horiz-adv-x="358" d="M-72 127q0 12 56 537q7 80 57 128t119 48q64 0 102.5 -33.5t38.5 -97.5q0 -19 -55 -551q-15 -158 -174 -158q-144 0 -144 127zM23 1040q0 3 4 45q18 165 45 428q9 79 58.5 128t117.5 49q65 0 104 -36t39 -102q0 -2 -3 -30q-4 -36 -7.5 -71t-15 -141.5t-25.5 -242.5 q-15 -158 -174 -158q-143 0 -143 131z" />
<glyph unicode="&#xa7;" horiz-adv-x="1087" d="M-37 100q0 72 52 125.5t122 53.5q44 0 116 -29t136 -29q118 0 123 49q0 20 -39 46t-97.5 52.5t-126.5 64t-126.5 78t-97.5 97t-39 117.5q0 84 54.5 148.5t135.5 64.5q48 0 77 -21.5t47 -57t38 -74t64 -79t110 -65.5q40 -15 55 -20.5t52 -21t53 -24.5t46 -26.5t44 -32 t34 -36t29 -43.5t16 -50t7 -59q0 -102 -44 -186t-115.5 -136.5t-159.5 -81t-181 -28.5q-174 0 -317 79q-68 39 -68 125zM63 1272q0 99 44.5 182t117.5 135t161 80.5t179 28.5q178 0 318 -82q69 -40 69 -125q0 -3 -1 -10.5t-1 -10.5q-7 -71 -58 -114t-116 -43 q-42 0 -114.5 29.5t-137.5 29.5q-118 0 -123 -51q0 -22 54.5 -52.5t131.5 -66.5t154.5 -81t132 -111.5t54.5 -141.5q0 -85 -54 -150t-135 -65q-36 0 -59.5 10.5t-36.5 29t-23.5 42t-25.5 52t-36.5 56t-62.5 57t-98 52.5q-55 19 -96.5 37t-88.5 46.5t-77.5 60.5t-51 77.5 t-20.5 98.5z" />
<glyph unicode="&#xa8;" horiz-adv-x="997" d="M66 1257q7 89 65 145t137 56q70 0 117 -47.5t47 -116.5q-7 -89 -65.5 -144.5t-135.5 -55.5q-73 0 -119 46.5t-46 116.5zM575 1257q7 89 64.5 145t134.5 56q73 0 118.5 -46t45.5 -116q-7 -91 -64 -146.5t-137 -55.5q-70 0 -116 47t-46 116z" />
<glyph unicode="&#xa9;" horiz-adv-x="1832" d="M43 659q0 183 70.5 346.5t188 278.5t276.5 182.5t331 67.5q158 0 289.5 -51.5t221.5 -142t140 -218t50 -276.5q0 -180 -69.5 -342t-187 -277.5t-277.5 -183.5t-335 -68q-315 0 -506.5 190.5t-191.5 493.5zM254 682q0 -230 141.5 -374t376.5 -144q138 0 259 56 t202.5 147.5t128.5 210.5t47 245q0 231 -141.5 380t-376.5 149q-112 0 -213 -37t-177 -101.5t-132.5 -149.5t-85.5 -183t-29 -199zM379 700q0 144 70.5 271t189.5 202.5t254 75.5q86 0 190 -49q38 -17 61 -50t23 -69q-6 -66 -49.5 -110.5t-101.5 -44.5q-21 0 -75.5 18.5 t-84.5 18.5q-88 0 -141 -75t-53 -163q0 -71 39 -122.5t100 -51.5q31 0 85 17.5t81 17.5q65 0 95 -27.5t30 -83.5q0 -81 -76 -143q-89 -64 -230 -64q-189 0 -298 123.5t-109 308.5z" />
<glyph unicode="&#xab;" horiz-adv-x="1185" d="M-4 590q3 43 49 108l205 295q55 68 129 68q57 0 102 -44t45 -102q-5 -52 -32 -92l-170 -233l131 -283q8 -18 8 -49q-6 -52 -64.5 -96.5t-117.5 -44.5q-82 0 -115 65l-146 299q-24 49 -24 109zM485 590q3 43 43 106l217 301q52 62 129 62q150 0 150 -121q0 -64 -39 -119 l-172 -229l131 -279q10 -20 10 -53q-6 -52 -64.5 -96.5t-117.5 -44.5q-87 0 -113 65l-153 299q-21 52 -21 109z" />
<glyph unicode="&#xac;" horiz-adv-x="1380" d="M14 563q0 84 55 139.5t132 55.5h843q152 0 152 -146q0 -20 -31 -303q-18 -170 -172 -170q-62 0 -104.5 41.5t-42.5 108.5l14 147h-692q-154 0 -154 127z" />
<glyph unicode="&#xad;" horiz-adv-x="1780" />
<glyph unicode="&#xae;" horiz-adv-x="1830" d="M45 678q0 182 70 344.5t188 277t276 181.5t330 67q157 0 288 -51t221 -141t140 -217t50 -275q0 -185 -69 -348t-185.5 -277.5t-275 -180.5t-333.5 -66q-208 0 -367.5 87.5t-246 243.5t-86.5 355zM248 700q0 -151 63.5 -270t184.5 -187.5t280 -68.5q140 0 260.5 56 t201 149.5t126 213t45.5 247.5q0 151 -62 268.5t-181 185.5t-277 68q-138 0 -259.5 -56t-204 -148t-130 -212t-47.5 -246zM449 412q0 28 69 678q10 100 84 135q41 18 86 18h252q139 0 223 -90q76 -76 76 -186q0 -87 -48.5 -158t-127.5 -111l41 -69q72 -127 72 -189 q-7 -70 -52.5 -105.5t-115.5 -35.5q-95 0 -136 104l-114 248l-23 -211q-15 -141 -160 -141q-65 0 -95.5 27.5t-30.5 85.5zM778 860h109q42 0 68 22t28 50v8q0 26 -20.5 42.5t-61.5 16.5h-108z" />
<glyph unicode="&#xb0;" horiz-adv-x="622" d="M66 1337q0 129 90 217t213 88q112 0 179.5 -68t67.5 -173q0 -127 -92 -217t-213 -90q-109 0 -177 68t-68 175zM205 1352q0 -53 33.5 -87t87.5 -34q60 0 102.5 42t48.5 111q0 52 -33.5 86.5t-89.5 34.5q-65 0 -104.5 -42.5t-44.5 -110.5z" />
<glyph unicode="&#xb1;" d="M29 131q0 83 55.5 135.5t132.5 52.5h815q156 0 156 -131q0 -88 -51.5 -137t-137.5 -49h-815q-155 0 -155 129zM96 821q0 92 51 142.5t136 50.5h241l8 96q6 79 54 121.5t127 42.5q68 0 109.5 -36t41.5 -101q0 -2 -0.5 -8.5t-4 -37t-7.5 -77.5h242q77 0 121.5 -41 t44.5 -105q0 -88 -56 -134t-145 -46h-242l-12 -115q-7 -72 -59.5 -115.5t-124.5 -43.5q-146 0 -146 129q0 20 14 145h-241q-152 0 -152 133z" />
<glyph unicode="&#xb2;" horiz-adv-x="677" d="M0 885q0 38 31 73l282 336q35 44 41 88q0 29 -19 45.5t-46 16.5q-30 0 -54 -20t-28 -56q-4 -31 -28 -60.5t-62 -29.5q-35 0 -54.5 26.5t-19.5 59.5q10 110 88.5 176t175.5 66q87 0 151 -54t64 -139q0 -112 -98 -225q-153 -177 -180 -209h166q69 0 69 -66 q0 -42 -23.5 -67.5t-64.5 -26.5h-303q-88 0 -88 66z" />
<glyph unicode="&#xb3;" horiz-adv-x="684" d="M-6 985q0 39 24.5 67.5t61.5 28.5q23 0 44 -13.5t28 -37.5q18 -59 69 -59q35 0 63.5 22.5t32.5 61.5q0 37 -14 65.5t-45 34.5h-33q-41 0 -60.5 13t-19.5 44q0 41 26.5 60.5t70.5 19.5q18 0 28 2q21 6 36.5 33.5t17.5 54.5q0 68 -58 68t-71 -51q-1 -9 -7 -20.5t-23 -23.5 t-40 -12q-78 0 -78 62q0 86 77 145.5t165 59.5q90 0 145 -58t55 -137q0 -57 -30 -103.5t-78 -76.5q100 -56 100 -168q0 -109 -85 -184.5t-191 -75.5q-63 0 -112.5 29t-76.5 73q-22 36 -22 76z" />
<glyph unicode="&#xb5;" horiz-adv-x="1120" d="M-88 -299l139 1333q8 82 50 121t124 39q146 0 146 -131q0 -8 -6 -74l-60 -569q3 -48 35.5 -80.5t81.5 -32.5q78 0 135.5 60.5t65.5 144.5l55 522q18 160 178 160q145 0 145 -133q0 -5 -8 -78l-86 -813q-18 -170 -176 -170q-46 0 -79.5 31t-33.5 88q-26 -57 -82 -91 t-122 -34q-54 0 -92.5 32t-49.5 83q-6 -65 -20.5 -190t-20.5 -189q-9 -82 -53 -121t-127 -39q-139 0 -139 131z" />
<glyph unicode="&#xb6;" horiz-adv-x="1171" d="M41 1073q0 121 49.5 215.5t134.5 152t192 86.5t230 29h479q59 -5 96.5 -46t37.5 -105q-8 -62 -55.5 -106.5t-108.5 -45.5l-119 -1122q-6 -61 -47 -97t-92 -36q-45 0 -79 30.5t-34 86.5q0 2 6 60q9 83 18 165t35.5 336t61.5 581h-158l-117 -1116q-7 -68 -48.5 -106.5 t-92.5 -38.5q-49 0 -83 35.5t-34 99.5q0 2 2 19q18 161 62 581q-152 23 -244 115.5t-92 226.5z" />
<glyph unicode="&#xb7;" horiz-adv-x="428" d="M-8 711q7 87 65.5 143.5t135.5 56.5q73 0 119 -46.5t46 -116.5q-7 -88 -65 -144.5t-137 -56.5q-70 0 -117 47.5t-47 116.5z" />
<glyph unicode="&#xbb;" horiz-adv-x="1075" d="M-41 231q4 50 31 84l190 275l-135 274l2 -6q-16 29 -16 60q4 57 59.5 103t118.5 46q86 0 121 -74l143 -295q29 -63 29 -100q-6 -66 -49 -119l-207 -295q-44 -65 -133 -65q-154 0 -154 112zM451 229q3 62 34 90l183 273q-5 9 -127 231q-21 38 -21 76q0 78 47.5 123 t124.5 45q96 0 127 -72l152 -297q24 -50 24 -92q-6 -70 -47 -127l-215 -297q-45 -63 -137 -63q-145 0 -145 110z" />
<glyph unicode="&#xbd;" horiz-adv-x="1290" d="M-8 1475q0 33 22.5 57.5t55.5 34.5l153 41q31 -3 51.5 -22t20.5 -48q0 -12 -2 -34.5t-7 -70.5t-12 -107t-18.5 -170t-24.5 -232q-3 -37 -28 -60.5t-62 -23.5q-34 0 -54.5 19.5t-20.5 53.5v2q9 73 53 506q-27 -12 -56 -12q-30 0 -50.5 18.5t-20.5 47.5zM59 86q0 29 15 59 l678 1377q49 80 106 80q31 0 50.5 -23.5t19.5 -60.5q0 -32 -19 -72l-698 -1393q-34 -51 -80 -51q-30 0 -51 24t-21 60zM653 66q0 38 31 73l283 336q35 44 41 88q0 29 -19.5 45.5t-46.5 16.5q-30 0 -54 -20t-28 -56q-4 -31 -28 -60.5t-62 -29.5q-35 0 -54.5 26.5t-19.5 59.5 q10 110 89 175.5t176 65.5q87 0 151 -53.5t64 -138.5q0 -110 -99 -225q-153 -177 -180 -209h166q70 0 70 -66q0 -41 -24 -67t-65 -27h-303q-88 0 -88 66z" />
<glyph unicode="&#x2000;" horiz-adv-x="907" />
<glyph unicode="&#x2001;" horiz-adv-x="1815" />
<glyph unicode="&#x2002;" horiz-adv-x="907" />
<glyph unicode="&#x2003;" horiz-adv-x="1815" />
<glyph unicode="&#x2004;" horiz-adv-x="605" />
<glyph unicode="&#x2005;" horiz-adv-x="453" />
<glyph unicode="&#x2006;" horiz-adv-x="302" />
<glyph unicode="&#x2007;" horiz-adv-x="302" />
<glyph unicode="&#x2008;" horiz-adv-x="226" />
<glyph unicode="&#x2009;" horiz-adv-x="363" />
<glyph unicode="&#x200a;" horiz-adv-x="100" />
<glyph unicode="&#x2010;" horiz-adv-x="800" d="M0 565q0 83 55.5 138t132.5 55h375q156 0 156 -137q0 -87 -52 -136t-137 -49h-374q-156 0 -156 129z" />
<glyph unicode="&#x2011;" horiz-adv-x="800" d="M0 565q0 83 55.5 138t132.5 55h375q156 0 156 -137q0 -87 -52 -136t-137 -49h-374q-156 0 -156 129z" />
<glyph unicode="&#x2012;" horiz-adv-x="800" d="M0 565q0 83 55.5 138t132.5 55h375q156 0 156 -137q0 -87 -52 -136t-137 -49h-374q-156 0 -156 129z" />
<glyph unicode="&#x2013;" horiz-adv-x="1474" d="M16 563q0 84 56 139.5t133 55.5h921q156 0 156 -137q0 -88 -51.5 -136.5t-136.5 -48.5h-922q-156 0 -156 127z" />
<glyph unicode="&#x2014;" horiz-adv-x="1900" d="M33 563q0 84 55.5 139.5t132.5 55.5h1282q156 0 156 -137q0 -88 -51.5 -136.5t-137.5 -48.5h-1282q-79 0 -117 31t-38 96z" />
<glyph unicode="&#x2018;" horiz-adv-x="520" d="M68 1395q6 72 59 118t119 46q97 0 129 -93l100 -309q14 -25 14 -47q0 -67 -56.5 -121.5t-121.5 -54.5q-54 0 -92 35t-53 84l-92 297q-6 21 -6 45z" />
<glyph unicode="&#x2019;" horiz-adv-x="520" d="M33 1077q2 38 30 78l164 311q49 93 148 93q61 0 104 -39t43 -99q-2 -46 -22 -78l-148 -290q-26 -48 -73.5 -83.5t-100.5 -35.5q-51 0 -98 44t-47 99z" />
<glyph unicode="&#x201a;" horiz-adv-x="520" d="M-90 -104q2 43 20 75l152 293q26 49 74 82t100 33q53 0 97 -39.5t44 -95.5q-3 -49 -26 -82l-166 -314q-55 -90 -148 -90q-61 0 -104 39.5t-43 98.5z" />
<glyph unicode="&#x201c;" horiz-adv-x="1015" d="M82 1407q6 64 58.5 108t117.5 44q99 0 131 -93l100 -309q13 -23 13 -70q-6 -58 -64.5 -105.5t-113.5 -47.5q-52 0 -91.5 36t-52.5 83l-90 297q-8 28 -8 57zM537 1407q6 65 57.5 108.5t116.5 43.5q101 0 133 -93l100 -309q10 -23 10 -70q-6 -58 -64.5 -105.5t-113.5 -47.5 q-52 0 -90 36t-51 83l-92 297q-6 18 -6 57z" />
<glyph unicode="&#x201d;" horiz-adv-x="1009" d="M47 1077q2 34 29 78l164 311q55 93 147 93q62 0 106 -39t44 -99q-2 -38 -23 -78l4 7l-153 -297q-26 -48 -73.5 -83.5t-101.5 -35.5q-49 0 -96 44t-47 99zM502 1077q3 39 26 78l164 311q55 93 148 93q62 0 105.5 -39t43.5 -99q-2 -40 -22 -78l4 7l-154 -297 q-24 -47 -71.5 -83t-102.5 -36q-49 0 -95 44t-46 99z" />
<glyph unicode="&#x201e;" horiz-adv-x="991" d="M-78 -106q2 39 23 77l151 293q24 48 73 82.5t101 34.5t96 -41.5t44 -97.5q-3 -43 -25 -80l-168 -314q-52 -90 -147 -90q-60 0 -104 39.5t-44 96.5zM358 -106q2 46 23 77l149 293q25 48 75.5 81.5t101.5 33.5q53 0 96 -40t43 -95q-3 -47 -27 -82l-166 -314 q-52 -90 -149 -90q-60 0 -103 39t-43 97z" />
<glyph unicode="&#x2022;" horiz-adv-x="1187" d="M121 672q0 127 63.5 232.5t166.5 163.5t222 58q163 0 263 -99t100 -257q0 -192 -133 -325.5t-316 -133.5q-166 0 -266 100.5t-100 260.5z" />
<glyph unicode="&#x2026;" horiz-adv-x="1413" d="M-37 164q7 89 65 145t136 56q70 0 117 -47.5t47 -116.5q-7 -89 -65.5 -145t-135.5 -56q-71 0 -117.5 47t-46.5 117zM436 164q7 89 65 145t136 56q70 0 117 -47.5t47 -116.5q-7 -89 -65.5 -145t-135.5 -56q-71 0 -117.5 47t-46.5 117zM913 164q7 89 64.5 145t134.5 56 q71 0 117.5 -47t46.5 -117q-7 -89 -65 -145t-136 -56q-70 0 -116 47t-46 117z" />
<glyph unicode="&#x202f;" horiz-adv-x="363" />
<glyph unicode="&#x2039;" horiz-adv-x="1396" d="M14 575q0 63 37 111t96 74l875 387q51 22 96 22q34 0 64 -12q75 -35 75 -115q-6 -66 -37 -107t-94 -71l-669 -266l596 -289q102 -49 102 -143q0 -76 -47 -121t-121 -45q-57 0 -106 25l-770 403q-97 51 -97 147z" />
<glyph unicode="&#x203a;" horiz-adv-x="1396" d="M-29 127q0 69 26.5 112t82.5 70l684 277l-610 284q-93 51 -93 142q7 86 50 126t122 40q35 0 72 -15l793 -411q114 -62 114 -150q-6 -65 -46.5 -111t-121.5 -83l-854 -392q-35 -14 -75 -14q-144 0 -144 125z" />
<glyph unicode="&#x205f;" horiz-adv-x="453" />
<glyph unicode="&#x20ac;" horiz-adv-x="1589" d="M-33 639q0 41 13.5 68.5t39 41t54 18.5t67.5 5h23l4 31q4 38 8 57h-24q-84 0 -118 15.5t-34 70.5q0 41 13.5 68.5t39 41t54 18.5t67.5 5h59q47 119 118.5 219t167.5 178t221.5 122t267.5 44q270 0 448 -178q49 -52 49 -123q-9 -88 -59.5 -137t-120.5 -49q-32 0 -67 13.5 t-54 35.5q-40 46 -103.5 71t-135.5 25q-121 0 -214 -59.5t-153 -161.5h444q84 0 118 -16t34 -72q0 -42 -13 -69t-39 -40t-53.5 -17.5t-68.5 -4.5h-502l-10 -88h276q83 0 117.5 -16t34.5 -70q0 -43 -13.5 -71t-40 -40.5t-53.5 -17t-67 -4.5h-219q39 -103 119.5 -163 t201.5 -60q160 0 256 88q54 49 117 49q75 0 112 -40t37 -103q0 -100 -77 -164q-223 -183 -488 -183q-116 0 -214.5 30t-171.5 82t-128 125t-88 158t-47 181h-53q-84 0 -118 15.5t-34 70.5z" />
<glyph unicode="&#x2122;" horiz-adv-x="1636" d="M104 1411q0 65 37.5 105t100.5 40h338q116 0 116 -104q0 -66 -38 -104.5t-103 -38.5h-43l-51 -488q-15 -135 -139 -135q-113 0 -113 107q0 18 53 516h-45q-113 0 -113 102zM616 793q0 6 160 641q36 135 160 135q118 0 139 -115l33 -287l98 289q46 113 164 113 q58 0 94 -35.5t39 -99.5l29 -609q-15 -131 -137 -131q-109 0 -115 113v344q-1 -5 -16.5 -73t-26 -111.5t-25.5 -97.5t-24 -76q-43 -103 -131 -103q-89 0 -115 105l-18 344l-60 -330q-28 -117 -139 -117q-109 0 -109 101z" />
<glyph unicode="&#x25fc;" horiz-adv-x="1198" d="M0 0v1198h1198v-1198h-1198z" />
</font>
</defs>
</svg>
